<?xml version="1.0" encoding="UTF-8"?>
      <mxfile host="codeviz.app" modified="2025-03-25T21:18:37.010Z" agent="CodeViz Exporter" version="14.6.5" type="device">
        <diagram id="codeviz-diagram" name="System Diagram">
          <mxGraphModel dx="1000" dy="1000" grid="1" gridSize="10" guides="1" tooltips="1" connect="1" arrows="1" fold="1" page="1" pageScale="1" pageWidth="1169" pageHeight="827" math="0" shadow="0">
            <root>
              <mxCell id="0"/>
              <mxCell id="1" parent="0"/>
              <mxCell id="subGraph2" value="" style="html=1;whiteSpace=wrap;container=1;fillColor=#dae8fc;strokeColor=#6c8ebf;dashed=1;fillOpacity=20;strokeWidth=2;containerType=none;recursiveResize=0;movable=1;resizable=1;autosize=0;dropTarget=0" vertex="1" parent="subGraph3">
                <mxGeometry x="441" y="525" width="520" height="220" as="geometry"/>
              </mxCell>
              <mxCell id="subGraph2_label" value="Knowledge Management" style="edgeLabel;html=1;align=center;verticalAlign=middle;resizable=0;labelBackgroundColor=white;spacing=5" vertex="1" parent="subGraph3">
                <mxGeometry x="449" y="533" width="444" height="24" as="geometry"/>
              </mxCell>
<mxCell id="subGraph1" value="" style="html=1;whiteSpace=wrap;container=1;fillColor=#dae8fc;strokeColor=#6c8ebf;dashed=1;fillOpacity=20;strokeWidth=2;containerType=none;recursiveResize=0;movable=1;resizable=1;autosize=0;dropTarget=0" vertex="1" parent="subGraph3">
                <mxGeometry x="141" y="295" width="520" height="220" as="geometry"/>
              </mxCell>
              <mxCell id="subGraph1_label" value="Tools Layer" style="edgeLabel;html=1;align=center;verticalAlign=middle;resizable=0;labelBackgroundColor=white;spacing=5" vertex="1" parent="subGraph3">
                <mxGeometry x="149" y="303" width="444" height="24" as="geometry"/>
              </mxCell>
<mxCell id="subGraph5" value="" style="html=1;whiteSpace=wrap;container=1;fillColor=#dae8fc;strokeColor=#6c8ebf;dashed=1;fillOpacity=20;strokeWidth=2;containerType=none;recursiveResize=0;movable=1;resizable=1;autosize=0;dropTarget=0" vertex="1" parent="subGraph6">
                <mxGeometry x="103" y="135" width="520" height="220" as="geometry"/>
              </mxCell>
              <mxCell id="subGraph5_label" value="Utility Components" style="edgeLabel;html=1;align=center;verticalAlign=middle;resizable=0;labelBackgroundColor=white;spacing=5" vertex="1" parent="subGraph6">
                <mxGeometry x="111" y="143" width="444" height="24" as="geometry"/>
              </mxCell>
<mxCell id="subGraph4" value="" style="html=1;whiteSpace=wrap;container=1;fillColor=#dae8fc;strokeColor=#6c8ebf;dashed=1;fillOpacity=20;strokeWidth=2;containerType=none;recursiveResize=0;movable=1;resizable=1;autosize=0;dropTarget=0" vertex="1" parent="subGraph6">
                <mxGeometry x="591" y="1240" width="240" height="320" as="geometry"/>
              </mxCell>
              <mxCell id="subGraph4_label" value="Monitoring &amp; Analytics" style="edgeLabel;html=1;align=center;verticalAlign=middle;resizable=0;labelBackgroundColor=white;spacing=5" vertex="1" parent="subGraph6">
                <mxGeometry x="599" y="1248" width="164" height="24" as="geometry"/>
              </mxCell>
<mxCell id="subGraph3" value="" style="html=1;whiteSpace=wrap;container=1;fillColor=#dae8fc;strokeColor=#6c8ebf;dashed=1;fillOpacity=20;strokeWidth=2;containerType=none;recursiveResize=0;movable=1;resizable=1;autosize=0;dropTarget=0" vertex="1" parent="subGraph6">
                <mxGeometry x="102" y="425" width="981" height="765" as="geometry"/>
              </mxCell>
              <mxCell id="subGraph3_label" value="Core System" style="edgeLabel;html=1;align=center;verticalAlign=middle;resizable=0;labelBackgroundColor=white;spacing=5" vertex="1" parent="subGraph6">
                <mxGeometry x="110" y="433" width="905" height="24" as="geometry"/>
              </mxCell>
<mxCell id="subGraph0" value="" style="html=1;whiteSpace=wrap;container=1;fillColor=#dae8fc;strokeColor=#6c8ebf;dashed=1;fillOpacity=20;strokeWidth=2;containerType=none;recursiveResize=0;movable=1;resizable=1;autosize=0;dropTarget=0" vertex="1" parent="subGraph6">
                <mxGeometry x="91" y="1240" width="520" height="220" as="geometry"/>
              </mxCell>
              <mxCell id="subGraph0_label" value="Model Integration Layer" style="edgeLabel;html=1;align=center;verticalAlign=middle;resizable=0;labelBackgroundColor=white;spacing=5" vertex="1" parent="subGraph6">
                <mxGeometry x="99" y="1248" width="444" height="24" as="geometry"/>
              </mxCell>
<mxCell id="subGraph7" value="" style="html=1;whiteSpace=wrap;container=1;fillColor=#dae8fc;strokeColor=#6c8ebf;dashed=1;fillOpacity=20;strokeWidth=2;containerType=none;recursiveResize=0;movable=1;resizable=1;autosize=0;dropTarget=0" vertex="1" parent="1">
                <mxGeometry x="996" y="1887" width="240" height="220" as="geometry"/>
              </mxCell>
              <mxCell id="subGraph7_label" value="External Services" style="edgeLabel;html=1;align=center;verticalAlign=middle;resizable=0;labelBackgroundColor=white;spacing=5" vertex="1" parent="1">
                <mxGeometry x="1004" y="1895" width="164" height="24" as="geometry"/>
              </mxCell>
<mxCell id="subGraph6" value="" style="html=1;whiteSpace=wrap;container=1;fillColor=#dae8fc;strokeColor=#6c8ebf;dashed=1;fillOpacity=20;strokeWidth=2;containerType=none;recursiveResize=0;movable=1;resizable=1;autosize=0;dropTarget=0" vertex="1" parent="1">
                <mxGeometry x="73" y="242" width="1064" height="1525" as="geometry"/>
              </mxCell>
              <mxCell id="subGraph6_label" value="AI Analysis System" style="edgeLabel;html=1;align=center;verticalAlign=middle;resizable=0;labelBackgroundColor=white;spacing=5" vertex="1" parent="1">
                <mxGeometry x="81" y="250" width="988" height="24" as="geometry"/>
              </mxCell>
              <mxCell id="User" value="External User" style="rounded=1;whiteSpace=wrap;html=1;fillColor=#f5f5f5" vertex="1" parent="1">
                    <mxGeometry x="34" y="12" width="120" height="60" as="geometry"/>
                  </mxCell>
<mxCell id="GeminiContainer" value="Gemini Integration&lt;br&gt;(Python/Google AI)" style="rounded=1;whiteSpace=wrap;html=1;fillColor=#f5f5f5" vertex="1" parent="subGraph0">
                    <mxGeometry x="320" y="120" width="120" height="60" as="geometry"/>
                  </mxCell>
<mxCell id="OllamaContainer" value="Ollama Integration&lt;br&gt;(Python/Ollama)" style="rounded=1;whiteSpace=wrap;html=1;fillColor=#f5f5f5" vertex="1" parent="subGraph0">
                    <mxGeometry x="40" y="120" width="120" height="60" as="geometry"/>
                  </mxCell>
<mxCell id="LMStudioContainer" value="LMStudio Integration&lt;br&gt;(Python/LMStudio)" style="rounded=1;whiteSpace=wrap;html=1;fillColor=#f5f5f5" vertex="1" parent="subGraph0">
                    <mxGeometry x="180" y="120" width="120" height="60" as="geometry"/>
                  </mxCell>
<mxCell id="CrewManager" value="Crew Management&lt;br&gt;(CrewAI)" style="rounded=1;whiteSpace=wrap;html=1;fillColor=#f5f5f5" vertex="1" parent="subGraph3">
                    <mxGeometry x="40" y="120" width="120" height="60" as="geometry"/>
                  </mxCell>
<mxCell id="TaskManager" value="Task Management&lt;br&gt;(YAML Config)" style="rounded=1;whiteSpace=wrap;html=1;fillColor=#f5f5f5" vertex="1" parent="subGraph3">
                    <mxGeometry x="311" y="220" width="120" height="60" as="geometry"/>
                  </mxCell>
<mxCell id="CustomTools" value="Custom Tools&lt;br&gt;(Python)" style="rounded=1;whiteSpace=wrap;html=1;fillColor=#f5f5f5" vertex="1" parent="subGraph1">
                    <mxGeometry x="320" y="120" width="120" height="60" as="geometry"/>
                  </mxCell>
<mxCell id="LangChainTools" value="LangChain Tools&lt;br&gt;(LangChain)" style="rounded=1;whiteSpace=wrap;html=1;fillColor=#f5f5f5" vertex="1" parent="subGraph1">
                    <mxGeometry x="180" y="120" width="120" height="60" as="geometry"/>
                  </mxCell>
<mxCell id="LangGraphTools" value="LangGraph Tools&lt;br&gt;(LangGraph)" style="rounded=1;whiteSpace=wrap;html=1;fillColor=#f5f5f5" vertex="1" parent="subGraph1">
                    <mxGeometry x="40" y="120" width="120" height="60" as="geometry"/>
                  </mxCell>
<mxCell id="KnowledgeBase" value="Knowledge Base&lt;br&gt;(YAML/JSON)" style="rounded=1;whiteSpace=wrap;html=1;fillColor=#f5f5f5" vertex="1" parent="subGraph2">
                    <mxGeometry x="40" y="120" width="120" height="60" as="geometry"/>
                  </mxCell>
<mxCell id="PromptTemplates" value="Prompt Templates&lt;br&gt;(Markdown)" style="rounded=1;whiteSpace=wrap;html=1;fillColor=#f5f5f5" vertex="1" parent="subGraph2">
                    <mxGeometry x="320" y="120" width="120" height="60" as="geometry"/>
                  </mxCell>
<mxCell id="Categories" value="Categories System&lt;br&gt;(YAML)" style="rounded=1;whiteSpace=wrap;html=1;fillColor=#f5f5f5" vertex="1" parent="subGraph2">
                    <mxGeometry x="180" y="120" width="120" height="60" as="geometry"/>
                  </mxCell>
<mxCell id="MLFlow" value="MLFlow Tracking&lt;br&gt;(MLflow)" style="rounded=1;whiteSpace=wrap;html=1;fillColor=#f5f5f5" vertex="1" parent="subGraph4">
                    <mxGeometry x="40" y="120" width="120" height="60" as="geometry"/>
                  </mxCell>
<mxCell id="Dashboard" value="MLFlow Dashboard&lt;br&gt;(Python/MLflow)" style="rounded=1;whiteSpace=wrap;html=1;fillColor=#f5f5f5" vertex="1" parent="subGraph4">
                    <mxGeometry x="40" y="220" width="120" height="60" as="geometry"/>
                  </mxCell>
<mxCell id="ConfigManager" value="Configuration Manager&lt;br&gt;(YAML)" style="rounded=1;whiteSpace=wrap;html=1;fillColor=#f5f5f5" vertex="1" parent="subGraph5">
                    <mxGeometry x="40" y="120" width="120" height="60" as="geometry"/>
                  </mxCell>
<mxCell id="KnowledgeManager" value="Knowledge Manager&lt;br&gt;(Python)" style="rounded=1;whiteSpace=wrap;html=1;fillColor=#f5f5f5" vertex="1" parent="subGraph5">
                    <mxGeometry x="180" y="120" width="120" height="60" as="geometry"/>
                  </mxCell>
<mxCell id="PerformanceMonitor" value="Performance Monitor&lt;br&gt;(Python)" style="rounded=1;whiteSpace=wrap;html=1;fillColor=#f5f5f5" vertex="1" parent="subGraph5">
                    <mxGeometry x="320" y="120" width="120" height="60" as="geometry"/>
                  </mxCell>
<mxCell id="SerperDev" value="Serper.dev API&lt;br&gt;(REST)" style="rounded=1;whiteSpace=wrap;html=1;fillColor=#f5f5f5" vertex="1" parent="subGraph7">
                    <mxGeometry x="40" y="120" width="120" height="60" as="geometry"/>
                  </mxCell>
              <mxCell id="edge-L_User_CrewManager_0" style="edgeStyle=orthogonalEdgeStyle;rounded=1;orthogonalLoop=1;jettySize=auto;html=1;strokeColor=#808080;strokeWidth=2;jumpStyle=arc;jumpSize=10;spacing=15;labelBackgroundColor=white;labelBorderColor=none" edge="1" parent="1" source="User" target="CrewManager">
                  <mxGeometry relative="1" as="geometry"/>
                </mxCell>
                <mxCell id="edge-L_User_CrewManager_0_label" value="Interacts" style="edgeLabel;html=1;align=center;verticalAlign=middle;resizable=0;points=[];" vertex="1" connectable="0" parent="edge-L_User_CrewManager_0">
                  <mxGeometry x="-0.2" y="10" relative="1" as="geometry">
                    <mxPoint as="offset"/>
                  </mxGeometry>
                </mxCell>
<mxCell id="edge-L_CrewManager_GeminiContainer_1" style="edgeStyle=orthogonalEdgeStyle;rounded=1;orthogonalLoop=1;jettySize=auto;html=1;strokeColor=#808080;strokeWidth=2;jumpStyle=arc;jumpSize=10;spacing=15;labelBackgroundColor=white;labelBorderColor=none" edge="1" parent="1" source="CrewManager" target="GeminiContainer">
                  <mxGeometry relative="1" as="geometry"/>
                </mxCell>
                <mxCell id="edge-L_CrewManager_GeminiContainer_1_label" value="Manages" style="edgeLabel;html=1;align=center;verticalAlign=middle;resizable=0;points=[];" vertex="1" connectable="0" parent="edge-L_CrewManager_GeminiContainer_1">
                  <mxGeometry x="-0.2" y="10" relative="1" as="geometry">
                    <mxPoint as="offset"/>
                  </mxGeometry>
                </mxCell>
<mxCell id="edge-L_CrewManager_OllamaContainer_2" style="edgeStyle=orthogonalEdgeStyle;rounded=1;orthogonalLoop=1;jettySize=auto;html=1;strokeColor=#808080;strokeWidth=2;jumpStyle=arc;jumpSize=10;spacing=15;labelBackgroundColor=white;labelBorderColor=none" edge="1" parent="1" source="CrewManager" target="OllamaContainer">
                  <mxGeometry relative="1" as="geometry"/>
                </mxCell>
                <mxCell id="edge-L_CrewManager_OllamaContainer_2_label" value="Manages" style="edgeLabel;html=1;align=center;verticalAlign=middle;resizable=0;points=[];" vertex="1" connectable="0" parent="edge-L_CrewManager_OllamaContainer_2">
                  <mxGeometry x="-0.2" y="10" relative="1" as="geometry">
                    <mxPoint as="offset"/>
                  </mxGeometry>
                </mxCell>
<mxCell id="edge-L_CrewManager_LMStudioContainer_3" style="edgeStyle=orthogonalEdgeStyle;rounded=1;orthogonalLoop=1;jettySize=auto;html=1;strokeColor=#808080;strokeWidth=2;jumpStyle=arc;jumpSize=10;spacing=15;labelBackgroundColor=white;labelBorderColor=none" edge="1" parent="1" source="CrewManager" target="LMStudioContainer">
                  <mxGeometry relative="1" as="geometry"/>
                </mxCell>
                <mxCell id="edge-L_CrewManager_LMStudioContainer_3_label" value="Manages" style="edgeLabel;html=1;align=center;verticalAlign=middle;resizable=0;points=[];" vertex="1" connectable="0" parent="edge-L_CrewManager_LMStudioContainer_3">
                  <mxGeometry x="-0.2" y="10" relative="1" as="geometry">
                    <mxPoint as="offset"/>
                  </mxGeometry>
                </mxCell>
<mxCell id="edge-L_CrewManager_TaskManager_4" style="edgeStyle=orthogonalEdgeStyle;rounded=1;orthogonalLoop=1;jettySize=auto;html=1;strokeColor=#808080;strokeWidth=2;jumpStyle=arc;jumpSize=10;spacing=15;labelBackgroundColor=white;labelBorderColor=none" edge="1" parent="1" source="CrewManager" target="TaskManager">
                  <mxGeometry relative="1" as="geometry"/>
                </mxCell>
                <mxCell id="edge-L_CrewManager_TaskManager_4_label" value="Uses" style="edgeLabel;html=1;align=center;verticalAlign=middle;resizable=0;points=[];" vertex="1" connectable="0" parent="edge-L_CrewManager_TaskManager_4">
                  <mxGeometry x="-0.2" y="10" relative="1" as="geometry">
                    <mxPoint as="offset"/>
                  </mxGeometry>
                </mxCell>
<mxCell id="edge-L_TaskManager_CustomTools_5" style="edgeStyle=orthogonalEdgeStyle;rounded=1;orthogonalLoop=1;jettySize=auto;html=1;strokeColor=#808080;strokeWidth=2;jumpStyle=arc;jumpSize=10;spacing=15;labelBackgroundColor=white;labelBorderColor=none" edge="1" parent="1" source="TaskManager" target="CustomTools">
                  <mxGeometry relative="1" as="geometry"/>
                </mxCell>
                <mxCell id="edge-L_TaskManager_CustomTools_5_label" value="Configures" style="edgeLabel;html=1;align=center;verticalAlign=middle;resizable=0;points=[];" vertex="1" connectable="0" parent="edge-L_TaskManager_CustomTools_5">
                  <mxGeometry x="-0.2" y="10" relative="1" as="geometry">
                    <mxPoint as="offset"/>
                  </mxGeometry>
                </mxCell>
<mxCell id="edge-L_TaskManager_LangChainTools_6" style="edgeStyle=orthogonalEdgeStyle;rounded=1;orthogonalLoop=1;jettySize=auto;html=1;strokeColor=#808080;strokeWidth=2;jumpStyle=arc;jumpSize=10;spacing=15;labelBackgroundColor=white;labelBorderColor=none" edge="1" parent="1" source="TaskManager" target="LangChainTools">
                  <mxGeometry relative="1" as="geometry"/>
                </mxCell>
                <mxCell id="edge-L_TaskManager_LangChainTools_6_label" value="Configures" style="edgeLabel;html=1;align=center;verticalAlign=middle;resizable=0;points=[];" vertex="1" connectable="0" parent="edge-L_TaskManager_LangChainTools_6">
                  <mxGeometry x="-0.2" y="10" relative="1" as="geometry">
                    <mxPoint as="offset"/>
                  </mxGeometry>
                </mxCell>
<mxCell id="edge-L_TaskManager_LangGraphTools_7" style="edgeStyle=orthogonalEdgeStyle;rounded=1;orthogonalLoop=1;jettySize=auto;html=1;strokeColor=#808080;strokeWidth=2;jumpStyle=arc;jumpSize=10;spacing=15;labelBackgroundColor=white;labelBorderColor=none" edge="1" parent="1" source="TaskManager" target="LangGraphTools">
                  <mxGeometry relative="1" as="geometry"/>
                </mxCell>
                <mxCell id="edge-L_TaskManager_LangGraphTools_7_label" value="Configures" style="edgeLabel;html=1;align=center;verticalAlign=middle;resizable=0;points=[];" vertex="1" connectable="0" parent="edge-L_TaskManager_LangGraphTools_7">
                  <mxGeometry x="-0.2" y="10" relative="1" as="geometry">
                    <mxPoint as="offset"/>
                  </mxGeometry>
                </mxCell>
<mxCell id="edge-L_CustomTools_KnowledgeBase_8" style="edgeStyle=orthogonalEdgeStyle;rounded=1;orthogonalLoop=1;jettySize=auto;html=1;strokeColor=#808080;strokeWidth=2;jumpStyle=arc;jumpSize=10;spacing=15;labelBackgroundColor=white;labelBorderColor=none" edge="1" parent="1" source="CustomTools" target="KnowledgeBase">
                  <mxGeometry relative="1" as="geometry"/>
                </mxCell>
                <mxCell id="edge-L_CustomTools_KnowledgeBase_8_label" value="Accesses" style="edgeLabel;html=1;align=center;verticalAlign=middle;resizable=0;points=[];" vertex="1" connectable="0" parent="edge-L_CustomTools_KnowledgeBase_8">
                  <mxGeometry x="-0.2" y="10" relative="1" as="geometry">
                    <mxPoint as="offset"/>
                  </mxGeometry>
                </mxCell>
<mxCell id="edge-L_LangChainTools_SerperDev_9" style="edgeStyle=orthogonalEdgeStyle;rounded=1;orthogonalLoop=1;jettySize=auto;html=1;strokeColor=#808080;strokeWidth=2;jumpStyle=arc;jumpSize=10;spacing=15;labelBackgroundColor=white;labelBorderColor=none" edge="1" parent="1" source="LangChainTools" target="SerperDev">
                  <mxGeometry relative="1" as="geometry"/>
                </mxCell>
                <mxCell id="edge-L_LangChainTools_SerperDev_9_label" value="Uses" style="edgeLabel;html=1;align=center;verticalAlign=middle;resizable=0;points=[];" vertex="1" connectable="0" parent="edge-L_LangChainTools_SerperDev_9">
                  <mxGeometry x="-0.2" y="10" relative="1" as="geometry">
                    <mxPoint as="offset"/>
                  </mxGeometry>
                </mxCell>
<mxCell id="edge-L_KnowledgeManager_KnowledgeBase_10" style="edgeStyle=orthogonalEdgeStyle;rounded=1;orthogonalLoop=1;jettySize=auto;html=1;strokeColor=#808080;strokeWidth=2;jumpStyle=arc;jumpSize=10;spacing=15;labelBackgroundColor=white;labelBorderColor=none" edge="1" parent="1" source="KnowledgeManager" target="KnowledgeBase">
                  <mxGeometry relative="1" as="geometry"/>
                </mxCell>
                <mxCell id="edge-L_KnowledgeManager_KnowledgeBase_10_label" value="Manages" style="edgeLabel;html=1;align=center;verticalAlign=middle;resizable=0;points=[];" vertex="1" connectable="0" parent="edge-L_KnowledgeManager_KnowledgeBase_10">
                  <mxGeometry x="-0.2" y="10" relative="1" as="geometry">
                    <mxPoint as="offset"/>
                  </mxGeometry>
                </mxCell>
<mxCell id="edge-L_KnowledgeManager_PromptTemplates_11" style="edgeStyle=orthogonalEdgeStyle;rounded=1;orthogonalLoop=1;jettySize=auto;html=1;strokeColor=#808080;strokeWidth=2;jumpStyle=arc;jumpSize=10;spacing=15;labelBackgroundColor=white;labelBorderColor=none" edge="1" parent="1" source="KnowledgeManager" target="PromptTemplates">
                  <mxGeometry relative="1" as="geometry"/>
                </mxCell>
                <mxCell id="edge-L_KnowledgeManager_PromptTemplates_11_label" value="Manages" style="edgeLabel;html=1;align=center;verticalAlign=middle;resizable=0;points=[];" vertex="1" connectable="0" parent="edge-L_KnowledgeManager_PromptTemplates_11">
                  <mxGeometry x="-0.2" y="10" relative="1" as="geometry">
                    <mxPoint as="offset"/>
                  </mxGeometry>
                </mxCell>
<mxCell id="edge-L_KnowledgeManager_Categories_12" style="edgeStyle=orthogonalEdgeStyle;rounded=1;orthogonalLoop=1;jettySize=auto;html=1;strokeColor=#808080;strokeWidth=2;jumpStyle=arc;jumpSize=10;spacing=15;labelBackgroundColor=white;labelBorderColor=none" edge="1" parent="1" source="KnowledgeManager" target="Categories">
                  <mxGeometry relative="1" as="geometry"/>
                </mxCell>
                <mxCell id="edge-L_KnowledgeManager_Categories_12_label" value="Manages" style="edgeLabel;html=1;align=center;verticalAlign=middle;resizable=0;points=[];" vertex="1" connectable="0" parent="edge-L_KnowledgeManager_Categories_12">
                  <mxGeometry x="-0.2" y="10" relative="1" as="geometry">
                    <mxPoint as="offset"/>
                  </mxGeometry>
                </mxCell>
<mxCell id="edge-L_CrewManager_MLFlow_13" style="edgeStyle=orthogonalEdgeStyle;rounded=1;orthogonalLoop=1;jettySize=auto;html=1;strokeColor=#808080;strokeWidth=2;jumpStyle=arc;jumpSize=10;spacing=15;labelBackgroundColor=white;labelBorderColor=none" edge="1" parent="1" source="CrewManager" target="MLFlow">
                  <mxGeometry relative="1" as="geometry"/>
                </mxCell>
                <mxCell id="edge-L_CrewManager_MLFlow_13_label" value="Logs to" style="edgeLabel;html=1;align=center;verticalAlign=middle;resizable=0;points=[];" vertex="1" connectable="0" parent="edge-L_CrewManager_MLFlow_13">
                  <mxGeometry x="-0.2" y="10" relative="1" as="geometry">
                    <mxPoint as="offset"/>
                  </mxGeometry>
                </mxCell>
<mxCell id="edge-L_MLFlow_Dashboard_14" style="edgeStyle=orthogonalEdgeStyle;rounded=1;orthogonalLoop=1;jettySize=auto;html=1;strokeColor=#808080;strokeWidth=2;jumpStyle=arc;jumpSize=10;spacing=15;labelBackgroundColor=white;labelBorderColor=none" edge="1" parent="1" source="MLFlow" target="Dashboard">
                  <mxGeometry relative="1" as="geometry"/>
                </mxCell>
                <mxCell id="edge-L_MLFlow_Dashboard_14_label" value="Displays in" style="edgeLabel;html=1;align=center;verticalAlign=middle;resizable=0;points=[];" vertex="1" connectable="0" parent="edge-L_MLFlow_Dashboard_14">
                  <mxGeometry x="-0.2" y="10" relative="1" as="geometry">
                    <mxPoint as="offset"/>
                  </mxGeometry>
                </mxCell>
<mxCell id="edge-L_ConfigManager_CrewManager_15" style="edgeStyle=orthogonalEdgeStyle;rounded=1;orthogonalLoop=1;jettySize=auto;html=1;strokeColor=#808080;strokeWidth=2;jumpStyle=arc;jumpSize=10;spacing=15;labelBackgroundColor=white;labelBorderColor=none" edge="1" parent="1" source="ConfigManager" target="CrewManager">
                  <mxGeometry relative="1" as="geometry"/>
                </mxCell>
                <mxCell id="edge-L_ConfigManager_CrewManager_15_label" value="Configures" style="edgeLabel;html=1;align=center;verticalAlign=middle;resizable=0;points=[];" vertex="1" connectable="0" parent="edge-L_ConfigManager_CrewManager_15">
                  <mxGeometry x="-0.2" y="10" relative="1" as="geometry">
                    <mxPoint as="offset"/>
                  </mxGeometry>
                </mxCell>
<mxCell id="edge-L_ConfigManager_TaskManager_16" style="edgeStyle=orthogonalEdgeStyle;rounded=1;orthogonalLoop=1;jettySize=auto;html=1;strokeColor=#808080;strokeWidth=2;jumpStyle=arc;jumpSize=10;spacing=15;labelBackgroundColor=white;labelBorderColor=none" edge="1" parent="1" source="ConfigManager" target="TaskManager">
                  <mxGeometry relative="1" as="geometry"/>
                </mxCell>
                <mxCell id="edge-L_ConfigManager_TaskManager_16_label" value="Configures" style="edgeLabel;html=1;align=center;verticalAlign=middle;resizable=0;points=[];" vertex="1" connectable="0" parent="edge-L_ConfigManager_TaskManager_16">
                  <mxGeometry x="-0.2" y="10" relative="1" as="geometry">
                    <mxPoint as="offset"/>
                  </mxGeometry>
                </mxCell>
<mxCell id="edge-L_PerformanceMonitor_MLFlow_17" style="edgeStyle=orthogonalEdgeStyle;rounded=1;orthogonalLoop=1;jettySize=auto;html=1;strokeColor=#808080;strokeWidth=2;jumpStyle=arc;jumpSize=10;spacing=15;labelBackgroundColor=white;labelBorderColor=none" edge="1" parent="1" source="PerformanceMonitor" target="MLFlow">
                  <mxGeometry relative="1" as="geometry"/>
                </mxCell>
                <mxCell id="edge-L_PerformanceMonitor_MLFlow_17_label" value="Tracks" style="edgeLabel;html=1;align=center;verticalAlign=middle;resizable=0;points=[];" vertex="1" connectable="0" parent="edge-L_PerformanceMonitor_MLFlow_17">
                  <mxGeometry x="-0.2" y="10" relative="1" as="geometry">
                    <mxPoint as="offset"/>
                  </mxGeometry>
                </mxCell>
<mxCell id="edge-L_GeminiContainer_KnowledgeManager_18" style="edgeStyle=orthogonalEdgeStyle;rounded=1;orthogonalLoop=1;jettySize=auto;html=1;strokeColor=#808080;strokeWidth=2;jumpStyle=arc;jumpSize=10;spacing=15;labelBackgroundColor=white;labelBorderColor=none" edge="1" parent="1" source="GeminiContainer" target="KnowledgeManager">
                  <mxGeometry relative="1" as="geometry"/>
                </mxCell>
                <mxCell id="edge-L_GeminiContainer_KnowledgeManager_18_label" value="Uses" style="edgeLabel;html=1;align=center;verticalAlign=middle;resizable=0;points=[];" vertex="1" connectable="0" parent="edge-L_GeminiContainer_KnowledgeManager_18">
                  <mxGeometry x="-0.2" y="10" relative="1" as="geometry">
                    <mxPoint as="offset"/>
                  </mxGeometry>
                </mxCell>
<mxCell id="edge-L_OllamaContainer_KnowledgeManager_19" style="edgeStyle=orthogonalEdgeStyle;rounded=1;orthogonalLoop=1;jettySize=auto;html=1;strokeColor=#808080;strokeWidth=2;jumpStyle=arc;jumpSize=10;spacing=15;labelBackgroundColor=white;labelBorderColor=none" edge="1" parent="1" source="OllamaContainer" target="KnowledgeManager">
                  <mxGeometry relative="1" as="geometry"/>
                </mxCell>
                <mxCell id="edge-L_OllamaContainer_KnowledgeManager_19_label" value="Uses" style="edgeLabel;html=1;align=center;verticalAlign=middle;resizable=0;points=[];" vertex="1" connectable="0" parent="edge-L_OllamaContainer_KnowledgeManager_19">
                  <mxGeometry x="-0.2" y="10" relative="1" as="geometry">
                    <mxPoint as="offset"/>
                  </mxGeometry>
                </mxCell>
<mxCell id="edge-L_LMStudioContainer_KnowledgeManager_20" style="edgeStyle=orthogonalEdgeStyle;rounded=1;orthogonalLoop=1;jettySize=auto;html=1;strokeColor=#808080;strokeWidth=2;jumpStyle=arc;jumpSize=10;spacing=15;labelBackgroundColor=white;labelBorderColor=none" edge="1" parent="1" source="LMStudioContainer" target="KnowledgeManager">
                  <mxGeometry relative="1" as="geometry"/>
                </mxCell>
                <mxCell id="edge-L_LMStudioContainer_KnowledgeManager_20_label" value="Uses" style="edgeLabel;html=1;align=center;verticalAlign=middle;resizable=0;points=[];" vertex="1" connectable="0" parent="edge-L_LMStudioContainer_KnowledgeManager_20">
                  <mxGeometry x="-0.2" y="10" relative="1" as="geometry">
                    <mxPoint as="offset"/>
                  </mxGeometry>
                </mxCell>
            </root>
          </mxGraphModel>
        </diagram>
      </mxfile>